<?xml version="1.0" encoding="UTF-8"?>
<!DOCTYPE svg PUBLIC "-//W3C//DTD SVG 1.1//EN" "http://www.w3.org/Graphics/SVG/1.1/DTD/svg11.dtd">
<!-- Creator: CorelDRAW X7 -->
<svg xmlns="http://www.w3.org/2000/svg" xml:space="preserve" width="10.8372mm" height="10.8372mm" version="1.1" style="shape-rendering:geometricPrecision; text-rendering:geometricPrecision; image-rendering:optimizeQuality; fill-rule:evenodd; clip-rule:evenodd"
viewBox="0 0 1084 1084"
 xmlns:xlink="http://www.w3.org/1999/xlink">
 <defs>
  <style type="text/css">
   <![CDATA[
    .fil0 {fill:#4688f1}
    .fil1 {fill:#3aa757}
    .fil2 {fill:#e8453c}
    .fil3 {fill:#f9bb2d}
    .fil4 {fill:#A14694}
   ]]>
  </style>
 </defs>
 <g id="Layer_x0020_1">
  <metadata id="CorelCorpID_0Corel-Layer"/>
  <g id="_231731936">
   <path class="fil0" d="M870 416l1 3 1 4 2 5 1 3 2 5 1 3 1 5 1 3 2 6 0 2c1,2 1,4 2,6l0 3c1,2 1,4 2,6l0 2c1,2 1,5 1,7l1 1c0,3 1,5 1,8l0 1c1,3 1,5 1,8l0 0c1,3 1,6 1,9l0 0 0 1c1,2 1,5 1,8l0 0 0 0 0 0c0,3 0,5 1,8l0 1 0 0c0,6 0,12 0,18 0,194 -157,351 -351,351l0 0 -1 0c-2,0 -5,0 -8,0l0 0 0 0 0 0 -1 0 -3 0 -141 169c49,14 100,22 154,22 299,0 542,-243 542,-542 0,-71 -14,-138 -38,-200l-79 0 -136 0c15,23 29,47 39,74z"/>
   <path class="fil1" d="M73 271c-47,80 -73,172 -73,271 0,218 129,406 315,492l129 -155c-28,-8 -55,-20 -80,-34l-2 -1 -4 -3 0 0c-3,-2 -6,-4 -9,-6l-2 -1 -3 -2 -2 -1c-3,-2 -5,-4 -8,-6l0 0 -4 -3 -2 -2c-2,-1 -4,-3 -6,-5l-2 -1 -4 -3 -1 -1 -4 -3c-1,-2 -3,-3 -4,-4l0 0 -3 -3 -2 -2 -4 -3c-1,-1 -2,-3 -4,-4l-3 -3 -1 -2 -4 -3 0 0 -4 -4 -2 -3 -2 -3 -3 -3 -2 -2 -4 -5 -2 -3 -3 -3 -2 -2c-1,-2 -2,-4 -4,-6l-2 -2 -2 -3 -2 -4 -2 -2c-1,-2 -2,-4 -3,-6l-2 -3 -2 -3 -2 -3 0 0 -3 -5 0 0 -2 -3 -2 -4 -1 -3c-2,-2 -3,-4 -4,-6l-1 -2 -2 -4 -1 -3c-1,-2 -2,-4 -3,-6l-1 -3 -2 -4 -1 -3c-1,-2 -2,-4 -3,-6l0 0 0 -1c-1,-2 -2,-4 -3,-6l0 -2c-1,-3 -2,-5 -3,-7l0 0 0 -1c-1,-2 -1,-4 -2,-6l-1 -3c-1,-2 -1,-4 -2,-6l0 -1 0 0c-1,-3 -1,-5 -2,-7l-1 -3 -1 -5 -1 -2c0,-3 -1,-5 -1,-7l-1 -3 -1 -6 0 -1c0,-3 -1,-6 -1,-8l0 -2c-1,-2 -1,-4 -1,-6l-1 -2c0,-3 0,-5 -1,-8l0 -1c0,-3 0,-5 0,-7l0 -2c-1,-2 -1,-5 -1,-8l0 -2c0,-2 0,-4 0,-6l0 -2c0,-3 0,-5 0,-8 0,-64 17,-124 47,-176l-165 -95z"/>
   <path class="fil2" d="M542 191c3,0 6,0 9,0l0 0c3,0 6,0 8,0l2 0c2,0 5,0 8,1l0 0c3,0 6,0 8,0l1 1c3,0 6,0 8,0l1 0c2,1 5,1 8,2l0 0 1 0c3,0 5,1 8,1l0 0c3,1 5,1 8,2l1 0c3,0 5,1 7,1l2 1c2,0 5,1 7,2l1 0 0 0c3,0 5,1 7,2l2 0c2,1 4,1 6,2l2 1c2,0 5,1 7,2l1 0c3,1 5,2 7,3l2 0c1,1 3,2 5,2l3 1c1,1 3,2 5,3l3 1 5 2 3 1 5 3 2 1c2,1 4,1 5,2l4 2 3 2 4 2 4 2 4 3 3 1 4 3 3 2 4 2 1 1 3 2 3 2 0 0 3 2 0 0 4 3 2 2c2,1 4,2 5,3l1 1c2,1 4,3 5,4l0 0 3 2 123 -146c-94,-77 -214,-123 -344,-123 -200,0 -374,108 -468,269l-1 2 165 95 1 -2c61,-104 174,-173 303,-173z"/>
   <path class="fil3" d="M444 879l133 -158 133 -158 -71 0 -26 0 -151 0c-41,0 -74,-33 -74,-74l0 0c0,-41 33,-74 74,-74l407 0 1 1c-10,-27 -24,-51 -39,-74l-369 0c-81,0 -147,66 -147,147l0 0c0,80 66,146 147,146l90 0 -179 215c-3,-2 -6,-4 -9,-5 25,14 52,26 80,34zm3 -390l0 0c0,-13 7,-24 16,-24l243 0c9,0 16,11 16,24l0 0c0,13 -7,24 -16,24l-243 0c-9,0 -16,-11 -16,-24z"/>
   <path class="fil4" d="M755 263c2,1 4,3 5,4 -1,-1 -3,-3 -5,-4z"/>
   <path class="fil4" d="M749 259c2,1 4,2 5,3 -1,-1 -3,-2 -5,-3z"/>
  </g>
 </g>
</svg>
