<?xml version="1.0" encoding="UTF-8"?>
<!DOCTYPE svg PUBLIC "-//W3C//DTD SVG 1.1//EN" "http://www.w3.org/Graphics/SVG/1.1/DTD/svg11.dtd">
<!-- Creator: CorelDRAW X7 -->
<svg xmlns="http://www.w3.org/2000/svg" xml:space="preserve" width="21.6746mm" height="21.6746mm" version="1.1" style="shape-rendering:geometricPrecision; text-rendering:geometricPrecision; image-rendering:optimizeQuality; fill-rule:evenodd; clip-rule:evenodd"
viewBox="0 0 2167 2167"
 xmlns:xlink="http://www.w3.org/1999/xlink">
 <defs>
  <style type="text/css">
   <![CDATA[
    .fil0 {fill:#4688f1}
    .fil1 {fill:#3aa757}
    .fil2 {fill:#e8453c}
    .fil3 {fill:#f9bb2d}
    .fil4 {fill:#A14694}
   ]]>
  </style>
 </defs>
 <g id="Layer_x0020_1">
  <metadata id="CorelCorpID_0Corel-Layer"/>
  <g id="_232384848">
   <path class="fil0" d="M1739 831l3 7 3 8 3 10 3 7 2 8 3 8 3 9 1 7 3 11 2 5c1,4 2,8 3,12l1 5c1,4 2,8 2,12l1 4c1,5 2,9 3,14l0 2c1,5 2,10 3,15l0 3c1,5 2,11 2,16l1 1c0,5 1,11 1,16l1 1 0 1c0,6 1,11 1,16l0 1 0 0 0 0c1,5 1,11 1,16l0 2 0 0c1,12 1,24 1,36 0,388 -314,702 -702,702l-1 0 0 0c-6,0 -11,0 -17,0l0 0 0 0 -1 0 0 0 -6 0 -283 337c98,29 201,44 308,44 598,0 1083,-485 1083,-1083 0,-141 -26,-276 -76,-400l-156 0 -273 0c31,46 57,95 77,147z"/>
   <path class="fil1" d="M145 542c-92,159 -145,344 -145,542 0,436 258,812 629,984l260 -309c-58,-17 -112,-40 -162,-70l-3 -2 -9 -5 0 0c-6,-4 -11,-7 -17,-11l-3 -2 -8 -5 -3 -3c-5,-3 -11,-7 -16,-11l-1 -1 -8 -6 -3 -2c-4,-3 -9,-7 -13,-10l-4 -3 -6 -6 -4 -3 -7 -6c-3,-2 -5,-5 -8,-7l0 0 -7 -6 -4 -4 -6 -6c-3,-3 -6,-5 -8,-8l-7 -6 -3 -4 -6 -6 0 -1 -8 -8 -5 -5 -4 -5 -6 -6 -4 -6 -8 -8 -5 -7 -4 -6 -4 -5c-3,-3 -6,-7 -8,-10l-4 -6 -4 -6 -5 -7 -3 -5c-3,-3 -5,-7 -8,-10l-3 -6 -5 -7 -3 -5 0 -1 -6 -10 0 0 -4 -6 -4 -8 -3 -5c-2,-4 -4,-8 -6,-12l-2 -4 -5 -10 -2 -4c-2,-5 -4,-9 -6,-13l-2 -5 -4 -8 -2 -6c-2,-4 -4,-9 -6,-13l0 -1 -1 -1c-1,-4 -3,-8 -4,-12l-2 -5c-1,-4 -3,-9 -5,-13l0 -1 0 0c-1,-5 -3,-9 -4,-14l-2 -5c-1,-4 -2,-8 -3,-12l-1 -2 0 -1c-2,-5 -3,-9 -4,-14l-1 -4 -3 -12 -1 -4c-1,-4 -2,-9 -3,-14l-1 -5 -2 -11 -1 -4c-1,-5 -2,-10 -2,-15l-1 -3c-1,-5 -1,-9 -2,-14l0 -3c-1,-5 -1,-10 -2,-16l0 -3c-1,-4 -1,-9 -1,-13l-1 -4c0,-5 0,-10 -1,-15l0 -4c0,-4 0,-9 0,-13l-1 -4c0,-5 0,-11 0,-16 0,-128 35,-248 94,-352l-330 -190z"/>
   <path class="fil2" d="M1084 381c6,0 11,0 17,1l2 0c5,0 10,0 15,0l3 0c6,1 11,1 17,1l0 0c6,1 11,1 17,2l2 0c5,1 10,1 16,2l1 0c5,1 10,1 16,2l1 0 1 1c5,0 10,1 16,2l1 0c5,1 10,2 15,3l3 1c4,1 9,2 14,3l2 0c5,2 10,3 15,4l1 0 1 1c5,1 10,2 14,3l4 2c4,1 8,2 12,3l4 1c5,2 9,3 13,5l4 1c4,1 9,3 13,4l3 2c4,1 8,3 12,4l4 2c4,1 8,3 11,4l6 3 9 4 7 3 10 4 4 3c4,1 7,3 10,5l7 3 8 4 7 4 8 4 8 5 6 4 8 5 6 3 9 6 0 0 7 4 5 4 1 0 6 5 1 0 8 6 4 3c3,3 6,5 10,7l1 2c4,2 7,5 11,8l0 0 5 4 246 -292c-188,-154 -427,-246 -688,-246 -399,0 -748,216 -936,537l-3 5 330 190 3 -3c122,-208 347,-348 606,-348z"/>
   <path class="fil3" d="M889 1759l265 -317 266 -316 -141 0 -52 0 -303 0c-82,0 -148,-67 -148,-148l0 0c0,-82 66,-149 148,-149l815 0 0 2c-20,-52 -46,-101 -77,-147l-738 0c-162,0 -293,132 -293,294l0 0c0,161 131,293 293,293l181 0 -360 428c-6,-3 -12,-6 -18,-10 50,30 104,53 162,70zm5 -781l0 0c0,-27 15,-48 32,-48l485 0c18,0 32,21 32,48l0 0c0,26 -14,47 -32,47l-485 0c-17,0 -32,-21 -32,-47z"/>
   <path class="fil4" d="M1510 526c4,2 7,5 11,8 -4,-3 -7,-6 -11,-8z"/>
   <path class="fil4" d="M1499 517c3,3 6,5 10,7 -4,-2 -7,-4 -10,-7z"/>
  </g>
 </g>
</svg>
