<?xml version="1.0" encoding="UTF-8"?>
<!DOCTYPE svg PUBLIC "-//W3C//DTD SVG 1.1//EN" "http://www.w3.org/Graphics/SVG/1.1/DTD/svg11.dtd">
<!-- Creator: CorelDRAW X7 -->
<svg xmlns="http://www.w3.org/2000/svg" xml:space="preserve" width="3.7252mm" height="3.7252mm" version="1.1" style="shape-rendering:geometricPrecision; text-rendering:geometricPrecision; image-rendering:optimizeQuality; fill-rule:evenodd; clip-rule:evenodd"
viewBox="0 0 373 373"
 xmlns:xlink="http://www.w3.org/1999/xlink">
 <defs>
  <style type="text/css">
   <![CDATA[
    .fil3 {fill:#C35B9D}
    .fil4 {fill:#A14694}
    .fil2 {fill:lime}
    .fil0 {fill:#086FFF}
    .fil1 {fill:#FF8400}
   ]]>
  </style>
 </defs>
 <g id="Layer_x0020_1">
  <metadata id="CorelCorpID_0Corel-Layer"/>
  <g id="_234033064">
   <path class="fil0" d="M299 143l0 1 1 1 0 2 1 1 0 2 1 1 0 2 1 1 0 2 0 1c0,0 1,1 1,2l0 0c0,1 0,2 0,3l1 0c0,1 0,2 0,3l0 0c0,1 0,2 1,3l0 0c0,1 0,2 0,3l0 0c0,1 0,2 0,3l0 0 0 0c0,1 1,2 1,3l0 0 0 0 0 0c0,1 0,2 0,3l0 0 0 0c0,2 0,4 0,6 0,67 -54,121 -121,121l0 0 0 0c-1,0 -2,0 -3,0l0 0 0 0 0 0 0 0 -1 0 -49 58c17,5 35,8 53,8 103,0 187,-84 187,-187 0,-24 -5,-47 -14,-68l-26 0 -47 0c5,7 9,16 13,25z"/>
   <path class="fil1" d="M25 93c-16,28 -25,59 -25,93 0,75 44,140 108,169l45 -53c-10,-3 -19,-7 -28,-12l-1 0 -1 -1 0 0c-1,-1 -2,-1 -3,-2l-1 0 -1 -1 0 0c-1,-1 -2,-2 -3,-2l0 -1 -2 -1 0 0c-1,-1 -2,-1 -2,-2l-1 0 -1 -1 -1 -1 -1 -1c-1,0 -1,-1 -2,-1l0 0 -1 -1 0 -1 -1 -1c-1,0 -1,-1 -2,-1l-1 -1 0 -1 -2 -1 0 0 -1 -1 -1 -1 -1 -1 0 -1 -1 -1 -1 -2 -1 -1 -1 -1 -1 -1c0,0 -1,-1 -1,-1l-1 -1 -1 -1 0 -2 -1 0c0,-1 -1,-2 -1,-2l-1 -1 -1 -2 0 0 0 0 -1 -2 0 0 -1 -1 -1 -2 0 0c0,-1 -1,-2 -1,-3l-1 0 0 -2 -1 -1c0,0 0,-1 -1,-2l0 -1 -1 -1 0 -1c0,-1 -1,-2 -1,-2l0 0 0 -1c0,0 -1,-1 -1,-2l0 -1c-1,0 -1,-1 -1,-2l0 0 0 0c0,-1 -1,-2 -1,-2l0 -1c0,-1 -1,-2 -1,-2l0 -1 0 0c0,-1 0,-1 -1,-2l0 -1 0 -2 0 -1c-1,0 -1,-1 -1,-2l0 -1 -1 -2 0 -1c0,0 0,-1 0,-2l0 -1c0,0 0,-1 0,-2l-1 -1c0,0 0,-1 0,-2l0 -1c0,-1 0,-1 0,-2l0 -1c0,-1 0,-1 0,-2l0 -1c0,-1 0,-2 0,-2l0 -1c0,-1 0,-2 0,-3 0,-22 5,-42 16,-60l-57 -33z"/>
   <path class="fil2" d="M186 66c1,0 2,0 3,0l1 0c0,0 1,0 2,0l1 0c1,0 2,0 3,0l0 0c1,0 2,0 2,0l1 0c1,0 2,0 3,0l0 1c1,0 2,0 2,0l1 0 0 0c1,0 2,0 3,0l0 0c1,1 1,1 2,1l1 0c1,0 1,0 2,1l1 0c1,0 1,0 2,0l0 0 1 0c0,1 1,1 2,1l1 0c0,0 1,1 2,1l0 0c1,0 2,1 3,1l0 0c1,0 2,1 3,1l0 0c1,0 1,0 2,1l1 0c0,0 1,1 2,1l1 0 1 1 1 0 2 1 1 1c1,0 1,0 2,0l1 1 1 1 1 0 2 1 1 1 1 1 2 0 1 1 1 1 0 0 1 1 1 0 0 1 1 0 1 0 1 1 1 1c0,0 1,1 1,1l1 0c0,1 1,1 1,2l0 0 1 1 42 -51c-32,-26 -73,-42 -118,-42 -68,0 -128,37 -161,92l0 1 57 33 0 -1c21,-35 60,-59 104,-59z"/>
   <path class="fil3" d="M153 302l45 -54 46 -54 -24 0 -9 0 -52 0c-14,0 -26,-12 -26,-26l0 0c0,-14 12,-25 26,-25l140 0 0 0c-4,-9 -8,-18 -13,-25l-127 0c-28,0 -51,22 -51,50l0 0c0,28 23,50 51,50l31 0 -62 74c-1,0 -2,-1 -3,-2 9,5 18,9 28,12zm1 -134l0 0c0,-4 2,-8 5,-8l84 0c3,0 5,4 5,8l0 0c0,5 -2,8 -5,8l-84 0c-3,0 -5,-3 -5,-8z"/>
   <path class="fil4" d="M260 90c0,1 1,1 1,2 0,-1 -1,-1 -1,-2z"/>
   <path class="fil4" d="M258 89c0,0 1,1 1,1 0,0 -1,-1 -1,-1z"/>
  </g>
 </g>
</svg>
