<?xml version="1.0" encoding="UTF-8"?>
<!DOCTYPE svg PUBLIC "-//W3C//DTD SVG 1.1//EN" "http://www.w3.org/Graphics/SVG/1.1/DTD/svg11.dtd">
<!-- Creator: CorelDRAW X7 -->
<svg xmlns="http://www.w3.org/2000/svg" xml:space="preserve" width="43.3492mm" height="43.3492mm" version="1.1" style="shape-rendering:geometricPrecision; text-rendering:geometricPrecision; image-rendering:optimizeQuality; fill-rule:evenodd; clip-rule:evenodd"
viewBox="-700 -700 5835 5835"
 xmlns:xlink="http://www.w3.org/1999/xlink">
 <defs>
  <style type="text/css">
   <![CDATA[
    .fil0 {fill:#4688f1}
    .fil1 {fill:#3aa757}
    .fil2 {fill:#e8453c}
    .fil3 {fill:#f9bb2d}
    .fil4 {fill:#A14694}
   ]]>
  </style>
 </defs>
 <g id="Layer_x0020_1">
  <metadata id="CorelCorpID_0Corel-Layer"/>
  <g id="_186736992">
   <path class="fil0" d="M3479 1662l5 13 6 16 7 20 4 14 6 17 5 16 5 19 4 12 6 22 2 10c2,8 4,16 6,24l3 11c1,8 3,16 5,24l2 8c1,9 3,19 5,28l1 5c1,9 3,19 5,29l1 6c1,11 3,21 4,32l0 2c2,10 3,21 4,32l0 2 0 2c1,11 2,22 3,33l0 0 0 0 0 1c1,11 2,22 2,32l1 3 0 1c1,24 1,48 1,71 0,776 -629,1405 -1405,1405l0 0 -1 0c-12,0 -23,0 -34,0l-1 0 0 0 -1 0 -1 0 -11 0 -566 674c195,58 402,89 615,89 1198,0 2168,-970 2168,-2168 0,-282 -54,-551 -152,-798l-313 0 -547 0c63,90 115,189 156,293z"/>
   <path class="fil1" d="M290 1084c-184,318 -290,689 -290,1083 0,873 515,1625 1258,1969l519 -619c-114,-33 -222,-80 -323,-139l-6 -4 -18 -10 0 0c-11,-7 -22,-15 -34,-22l-7 -5 -15 -10 -7 -5c-10,-7 -20,-14 -30,-22l-3 -1 -15 -12 -7 -5c-9,-7 -17,-14 -26,-21l-7 -5 -14 -12 -6 -5 -14 -12c-6,-5 -12,-10 -18,-16l0 0 -12 -11 -8 -8 -13 -12c-6,-5 -11,-11 -17,-16l-12 -12 -7 -7 -13 -14 0 0 -16 -17 -10 -11 -8 -9 -10 -12 -10 -12 -14 -17 -10 -13 -9 -11 -8 -10c-6,-8 -11,-15 -16,-22l-8 -11 -9 -12 -9 -14 -7 -9c-5,-7 -9,-14 -14,-22l-7 -11 -10 -15 -6 -10 0 -1 -12 -20 -1 -1 -6 -12 -9 -15 -6 -11c-4,-7 -8,-15 -12,-23l-5 -9 -9 -19 -5 -9c-4,-8 -7,-17 -11,-25l-5 -10 -7 -17 -5 -11c-4,-9 -7,-17 -10,-26l-1 -1 -1 -4c-3,-8 -6,-16 -9,-24l-4 -9c-3,-9 -6,-18 -9,-27l-1 -1 0 0c-3,-9 -6,-18 -9,-28l-3 -11c-2,-7 -5,-15 -7,-22l-1 -5 -1 -2c-2,-9 -5,-18 -7,-28l-3 -9 -5 -22 -2 -9c-2,-9 -4,-18 -6,-27l-2 -11 -5 -23 -1 -7c-2,-10 -3,-20 -5,-31l-1 -6c-1,-9 -2,-18 -4,-27l0 -6c-2,-10 -3,-21 -4,-31l-1 -6c0,-9 -1,-18 -2,-27l-1 -7c0,-11 -1,-21 -2,-31l0 -8c0,-9 -1,-17 -1,-26l0 -8c0,-11 0,-22 0,-33 0,-255 68,-495 188,-702l-661 -381z"/>
   <path class="fil2" d="M2167 763c12,0 24,0 36,0l2 0c11,0 21,1 32,1l5 1c11,0 23,1 34,2l1 0c11,1 22,2 33,3l3 0c11,1 22,2 33,4l1 0c11,1 22,3 32,4l2 1 2 0c11,2 22,3 32,5l2 1c11,2 21,4 31,6l5 1c10,2 19,4 29,6l4 1c11,2 21,5 31,7l2 1 2 0c9,3 18,5 28,8l7 2c8,2 16,5 23,7l10 3c9,3 17,5 26,8l7 3c8,3 17,6 26,9l6 2c8,3 16,6 23,9l9 3c8,3 15,6 22,10l13 5 18 8 13 6 20 9 8 4c7,3 14,7 21,10l13 7 15 8 15 8 16 9 17 10 11 6 17 10 10 7 18 11 2 2 12 8 12 7 0 1 12 8 2 2 17 11 8 6c7,5 13,10 19,15l4 2c7,6 14,11 20,16l0 1 12 9 490 -585c-374,-307 -853,-492 -1376,-492 -798,0 -1495,432 -1871,1074l-6 10 661 381 4 -8c244,-415 696,-694 1212,-694z"/>
   <path class="fil3" d="M1777 3517l531 -633 531 -632 -282 0 -104 0 -606 0c-163,0 -296,-134 -296,-297l0 0c0,-163 133,-296 296,-296l1630 0 2 3c-41,-104 -93,-203 -156,-293l-1476 0c-322,0 -586,264 -586,586l0 0c0,323 264,587 586,587l363 0 -720 857c-12,-7 -24,-14 -36,-21 101,59 209,106 323,139zm12 -1562l0 0c0,-52 28,-95 64,-95l970 0c35,0 64,43 64,95l0 0c0,53 -29,95 -64,95l-970 0c-36,0 -64,-42 -64,-95z"/>
   <path class="fil4" d="M3021 1051c7,6 14,11 20,16 -6,-5 -13,-10 -20,-16z"/>
   <path class="fil4" d="M2998 1034c7,5 13,10 19,15 -6,-5 -12,-10 -19,-15z"/>
  </g>
 </g>
</svg>
