<?xml version="1.0" encoding="UTF-8"?>
<!DOCTYPE svg PUBLIC "-//W3C//DTD SVG 1.1//EN" "http://www.w3.org/Graphics/SVG/1.1/DTD/svg11.dtd">
<!-- Creator: CorelDRAW X7 -->
<svg xmlns="http://www.w3.org/2000/svg" xml:space="preserve" width="6.0958mm" height="6.0958mm" version="1.1" style="shape-rendering:geometricPrecision; text-rendering:geometricPrecision; image-rendering:optimizeQuality; fill-rule:evenodd; clip-rule:evenodd"
viewBox="0 0 610 610"
 xmlns:xlink="http://www.w3.org/1999/xlink">
 <defs>
  <style type="text/css">
   <![CDATA[
    .fil3 {fill:#C35B9D}
    .fil4 {fill:#A14694}
    .fil2 {fill:lime}
    .fil0 {fill:#086FFF}
    .fil1 {fill:#FF8400}
   ]]>
  </style>
 </defs>
 <g id="Layer_x0020_1">
  <metadata id="CorelCorpID_0Corel-Layer"/>
  <g id="_234028600">
   <path class="fil0" d="M489 234l1 2 1 2 1 3 0 2 1 2 1 2 1 3 0 2 1 3 0 1c1,1 1,2 1,3l0 2c1,1 1,2 1,3l0 1c1,2 1,3 1,4l0 1c1,1 1,3 1,4l0 1c0,2 1,3 1,5l0 0c0,1 0,3 0,4l0 1 0 0c1,1 1,3 1,4l0 1 0 0 0 0c0,1 0,3 0,4l0 1 0 0c0,3 0,6 0,10 0,109 -88,197 -197,197l0 0 0 0c-2,0 -4,0 -5,0l0 0 0 0 0 0 -1 0 -1 0 -80 95c28,8 57,13 87,13 168,0 305,-137 305,-305 0,-40 -8,-78 -22,-113l-44 0 -77 0c9,13 17,27 22,42z"/>
   <path class="fil1" d="M41 152c-26,45 -41,97 -41,153 0,122 72,228 177,277l73 -87c-16,-5 -31,-12 -45,-20l-1 0 -3 -2 0 0c-1,-1 -3,-2 -5,-3l-1 -1 -2 -1 -1 -1c-1,-1 -3,-2 -4,-3l0 0 -3 -2 -1 -1c-1,0 -2,-1 -3,-2l-1 -1 -2 -2 -1 -1 -2 -1c-1,-1 -2,-2 -2,-2l0 0 -2 -2 -1 -1 -2 -2c-1,-1 -2,-1 -2,-2l-2 -2 -1 -1 -2 -2 0 0 -2 -2 -2 -2 -1 -1 -1 -2 -2 -1 -2 -3 -1 -1 -1 -2 -1 -2c-1,-1 -2,-2 -3,-3l-1 -1 -1 -2 -1 -2 -1 -1c-1,-1 -2,-2 -2,-3l-1 -2 -2 -2 0 -1 0 0 -2 -3 0 0 -1 -2 -1 -2 -1 -2c-1,-1 -1,-2 -2,-3l-1 -1 -1 -3 -1 -1c0,-1 -1,-2 -1,-4l-1 -1 -1 -2 -1 -2c0,-1 -1,-2 -1,-4l0 0 0 0c-1,-1 -1,-2 -2,-4l0 -1c0,-1 -1,-2 -1,-4l0 0 0 0c-1,-1 -1,-2 -2,-4l0 -1c0,-1 -1,-2 -1,-3l0 -1 0 0c-1,-2 -1,-3 -1,-4l-1 -2 -1 -3 0 -1c0,-1 0,-3 -1,-4l0 -1 -1 -4 0 -1c0,-1 0,-2 0,-4l-1 -1c0,-1 0,-2 0,-4l0 0c0,-2 -1,-3 -1,-5l0 -1c0,-1 0,-2 0,-3l0 -1c0,-2 0,-3 0,-5l-1 -1c0,-1 0,-2 0,-4l0 -1c0,-1 0,-3 0,-4 0,-36 10,-70 27,-99l-93 -54z"/>
   <path class="fil2" d="M305 107c1,0 3,0 5,0l0 0c2,0 3,0 5,0l0 1c2,0 3,0 5,0l0 0c2,0 3,0 5,0l0 0c2,0 3,1 5,1l0 0c2,0 3,0 5,0l0 1 0 0c2,0 3,0 5,0l0 0c1,1 3,1 4,1l1 0c1,1 3,1 4,1l1 0c1,1 2,1 4,1l0 0 0 1c2,0 3,0 4,1l1 0c2,0 3,1 4,1l1 0c1,1 2,1 4,1l1 1c1,0 2,1 3,1l1 0c1,1 2,1 3,2l2 0c1,1 2,1 3,1l2 1 2 1 2 1 3 1 1 1c1,0 2,1 3,1l2 1 2 2 2 1 2 1 3 1 1 1 2 2 2 1 2 1 1 0 1 1 2 2 0 0 2 1 0 0 2 2 2 0c0,1 1,2 2,2l1 1c1,1 2,1 3,2l0 0 1 1 69 -82c-52,-43 -120,-69 -193,-69 -112,0 -211,61 -263,151l-1 1 93 54 0 -1c35,-59 98,-98 171,-98z"/>
   <path class="fil3" d="M250 495l75 -89 74 -89 -39 0 -15 0 -85 0c-23,0 -42,-19 -42,-42l0 0c0,-23 19,-42 42,-42l229 0 0 1c-5,-15 -13,-29 -22,-42l-207 0c-46,0 -83,38 -83,83l0 0c0,45 37,82 83,82l51 0 -101 121c-2,-1 -4,-2 -5,-3 14,8 29,15 45,20zm2 -220l0 0c0,-7 4,-13 9,-13l136 0c5,0 9,6 9,13l0 0c0,7 -4,13 -9,13l-136 0c-5,0 -9,-6 -9,-13z"/>
   <path class="fil4" d="M425 148c1,1 2,1 3,2 -1,-1 -2,-1 -3,-2z"/>
   <path class="fil4" d="M422 145c0,1 1,2 2,2 -1,0 -2,-1 -2,-2z"/>
  </g>
 </g>
</svg>
